<svg xmlns="http://www.w3.org/2000/svg" viewBox="0 0 300 100"><defs><style>.cls-1{fill:#fff;}.cls-1,.cls-2,.cls-3{stroke:#fff;stroke-miterlimit:10;}.cls-2,.cls-3{fill:none;}.cls-2{stroke-width:2px;}.cls-3{stroke-width:0.5px;}</style></defs><g id="Warstwa_1" data-name="Warstwa 1"><path class="cls-1" d="M48.6,38.69V34.12H65.67v4.61A1.69,1.69,0,0,1,64,40.42a1.7,1.7,0,0,1-1.22-.5,1.62,1.62,0,0,1-.51-1.19V37.5H58.83V59.14a1.71,1.71,0,0,1-1.69,1.69,1.67,1.67,0,0,1-1.23-.49,1.6,1.6,0,0,1-.5-1.2V37.5H52v1.19a1.67,1.67,0,0,1-1.69,1.69,1.59,1.59,0,0,1-1.19-.49A1.64,1.64,0,0,1,48.6,38.69Z"/><path class="cls-1" d="M81.58,57.41l5.69-3.62V43.1a1.69,1.69,0,0,1,.49-1.22,1.67,1.67,0,0,1,2.4,0,1.69,1.69,0,0,1,.49,1.22v16a1.69,1.69,0,0,1-3.38,0V57.81l-2.94,1.91a6.38,6.38,0,0,1-3.49,1.11H79.27a4.91,4.91,0,0,1-3.56-1.45,5.08,5.08,0,0,1-1.58-3.54L73.62,43.1a1.48,1.48,0,0,1,.48-1.18,1.65,1.65,0,0,1,1.21-.51,1.57,1.57,0,0,1,1.18.5A1.7,1.7,0,0,1,77,43.1l.47,12.5c0,1.2.73,1.81,2.07,1.81Z"/><path class="cls-1" d="M98.44,59.14v-16a1.69,1.69,0,0,1,.49-1.22,1.68,1.68,0,0,1,2.4,0,1.67,1.67,0,0,1,.49,1.23v2.11l2.76-2.35a5.21,5.21,0,0,1,3.34-1.45h2.48a5.09,5.09,0,0,1,5.07,5.07v.9a1.71,1.71,0,0,1-.49,1.23,1.61,1.61,0,0,1-1.2.51,1.69,1.69,0,0,1-1.69-1.7v-.94a1.64,1.64,0,0,0-.5-1.2,1.59,1.59,0,0,0-1.19-.49h-2.2a2.57,2.57,0,0,0-1.57.74l-4.81,4.17v9.44a1.69,1.69,0,1,1-3.38,0Z"/><path class="cls-1" d="M126.8,35.77v7.95l1.49-1.19a4.57,4.57,0,0,1,2.92-1.16h3.1a4.52,4.52,0,0,1,3,1.16L139,43.92a4.38,4.38,0,0,1,1.1,1.67,6,6,0,0,1,.43,2.14v6.84a5.48,5.48,0,0,1-.4,2,4,4,0,0,1-.93,1.51l-1.47,1.39a5.11,5.11,0,0,1-1.61,1,4.79,4.79,0,0,1-1.77.43h-2.9q-2.11,0-4.61-2.36v.67a1.69,1.69,0,1,1-3.38,0V35.77a1.69,1.69,0,1,1,3.38,0Zm7.25,9h-2.34a2,2,0,0,0-1.29.38l-3,2.6a2,2,0,0,0-.58,1.57v3.82a1.76,1.76,0,0,0,.67,1.41l2.71,2.3a1.8,1.8,0,0,0,1.23.54h2.76a1.48,1.48,0,0,0,1-.36l1.35-1.21a1.33,1.33,0,0,0,.55-1.15V47.57a1.54,1.54,0,0,0-.55-1.29l-1.22-1A1.93,1.93,0,0,0,134.05,44.79Z"/><path class="cls-1" d="M182.41,57.45h6.1a1.69,1.69,0,0,1,1.22.49,1.64,1.64,0,0,1,0,2.4,1.69,1.69,0,0,1-1.22.49h-6.32a4.88,4.88,0,0,1-2.49-.76,4.51,4.51,0,0,1-1.79-1.72L174,50.81a7.68,7.68,0,0,1-.78-3.35,6.82,6.82,0,0,1,.74-3.28l3.95-7.46a5.19,5.19,0,0,1,1.75-1.85,4.11,4.11,0,0,1,2.29-.79h6.68a1.71,1.71,0,0,1,1.7,1.69,1.7,1.7,0,0,1-.5,1.22,1.59,1.59,0,0,1-1.19.51H182.2a1.49,1.49,0,0,0-1.31,1l-3.75,7a4,4,0,0,0-.44,1.95,4.4,4.4,0,0,0,.48,2.1l3.58,6.88A1.69,1.69,0,0,0,182.41,57.45Z"/><path class="cls-1" d="M203.07,48.63h6.64a7.57,7.57,0,0,1,1.57.24l0-2.39a1.67,1.67,0,0,0-.49-1.2,1.64,1.64,0,0,0-1.21-.49h-6.43a1.62,1.62,0,0,1-1.19-.51,1.59,1.59,0,0,1-.5-1.18,1.67,1.67,0,0,1,1.69-1.69h6.43a4.9,4.9,0,0,1,3.58,1.47,5.08,5.08,0,0,1,1.54,3.6l.42,12.66a1.6,1.6,0,0,1-.5,1.2,1.62,1.62,0,0,1-1.19.49,1.66,1.66,0,0,1-1.22-.49,1.61,1.61,0,0,1-.51-1.2l-2.86,1.69h-5.73A5.1,5.1,0,0,1,198,55.72v-2a5.14,5.14,0,0,1,5.12-5.12Zm8.46,6.58-.1-1.42a1.69,1.69,0,0,0-.5-1.21,1.65,1.65,0,0,0-1.19-.49h-6.67a1.69,1.69,0,0,0-1.69,1.7v1.89a1.63,1.63,0,0,0,.5,1.19,1.65,1.65,0,0,0,1.19.5h4.77Z"/><path class="cls-1" d="M222.93,59.14v-16a1.7,1.7,0,0,1,.5-1.22,1.57,1.57,0,0,1,1.19-.51,1.6,1.6,0,0,1,1.2.5,1.67,1.67,0,0,1,.49,1.23v2.11l2.76-2.35a5.23,5.23,0,0,1,3.34-1.45h2.48A5.09,5.09,0,0,1,240,46.48v.9a1.67,1.67,0,0,1-.49,1.23,1.61,1.61,0,0,1-1.2.51,1.69,1.69,0,0,1-1.69-1.7v-.94a1.67,1.67,0,0,0-1.69-1.69H232.7a2.59,2.59,0,0,0-1.58.74l-4.81,4.17v9.44a1.6,1.6,0,0,1-.5,1.2,1.62,1.62,0,0,1-1.19.49,1.59,1.59,0,0,1-1.19-.49A1.64,1.64,0,0,1,222.93,59.14Z"/><path class="cls-1" d="M252.56,41.41h7.75a5.1,5.1,0,0,1,3.2,1.07,2.88,2.88,0,0,1,1.39,2.11,1.51,1.51,0,0,1-.51,1.18,1.67,1.67,0,0,1-1.14.47,1.94,1.94,0,0,1-1.47-.73,1.89,1.89,0,0,0-1.39-.72h-7.65c-.75,0-1.12.31-1.12.94a1.07,1.07,0,0,0,.75,1l9,4a5.1,5.1,0,0,1,2.24,1.94,5.25,5.25,0,0,1,.88,3,5,5,0,0,1-1.54,3.68,4.85,4.85,0,0,1-3.49,1.51H252.6a5.62,5.62,0,0,1-3.29-1.07c-1-.71-1.52-1.4-1.52-2.07a1.69,1.69,0,0,1,.49-1.18,1.71,1.71,0,0,1,1.28-.51,2.07,2.07,0,0,1,1.38.72,2.88,2.88,0,0,0,2.13.73h6.3a1.58,1.58,0,0,0,1.24-.57,2,2,0,0,0,.51-1.32A1.7,1.7,0,0,0,260,53.91l-9.08-4.09a4.47,4.47,0,0,1-2-1.69,4.17,4.17,0,0,1-.71-2.26,4.43,4.43,0,0,1,1.26-3.14A4.13,4.13,0,0,1,252.56,41.41Z"/></g><g id="turbo"><path class="cls-2" d="M150.85,38.71c7.07-4.05,17.08-3,16.65-3,0,0,1,1.25,0,7.5"/><path class="cls-2" d="M167.38,34.22s1.2,3.28-.34,8.78"/><path class="cls-3" d="M170.52,34.87s1,3.33-.5,9"/><ellipse class="cls-2" cx="156" cy="48.5" rx="8.5" ry="7.93"/><circle class="cls-3" cx="156.5" cy="48.5" r="3"/><circle class="cls-3" cx="156.5" cy="48.5" r="1"/><path class="cls-3" d="M155.33,45.74s1.17.76,1.17,1.76"/><path class="cls-3" d="M157.5,45.74a2.85,2.85,0,0,1-.39,2"/><path class="cls-3" d="M159,46.84A3.78,3.78,0,0,1,157.54,48"/><path class="cls-3" d="M154.17,46.62s1.83.3,1.58,1.09"/><path class="cls-3" d="M153.54,48a4.48,4.48,0,0,1,2,.16"/><path class="cls-3" d="M153.76,49.71s.74-1.21,1.74-.71"/><path class="cls-3" d="M154.73,50.92s.6-1.81,1.18-1.61"/><path class="cls-3" d="M156.5,51.5a1.39,1.39,0,0,1,0-2"/><path class="cls-3" d="M157.78,51.21s-1.07-1.13-.67-1.92"/><path class="cls-3" d="M159,50.16s-.86.34-1.68-1.16"/><path class="cls-3" d="M159.49,48.33a1.33,1.33,0,0,1-2,.17"/><line class="cls-2" x1="150.99" y1="38.64" x2="149.74" y2="39.35"/><path class="cls-2" d="M167.84,35.6l4.75-.73c2.09,6.36-.59,8.76-.59,8.76l-1.64.37H168l-.54-.75H166A20.16,20.16,0,0,1,167.5,49a11.5,11.5,0,0,1-23,0,11.51,11.51,0,0,1,5.36-9.73"/></g><g id="gtr"><path class="cls-3" d="M71.5,63.5H63s-10.34,12-23.93,0H10.34l-.84-1v-3a4.33,4.33,0,0,1,4-2"/><path class="cls-3" d="M13.84,57.5l-.34-5H10.67v2l-1.17.07V47.35h.91a3.13,3.13,0,0,1,3.43-2.24s.66-2.61,1.66-2.61,0-.62,0-.62H14.1S23.5,28.5,69.5,27.5l6-1,27-13s30-9,78,10l5,2a17,17,0,0,1,7-4h14s-3,2-3,4l2,6a47.68,47.68,0,0,1,4,8"/><path class="cls-3" d="M43.5,34.5l2-1s-22,1-27,10a21.42,21.42,0,0,0,6-1c3-1,4.93-5.13,19.47-8.07"/><ellipse class="cls-3" cx="199.48" cy="33.25" rx="1.24" ry="4.15" transform="translate(4.91 88.39) rotate(-25.29)"/><ellipse class="cls-3" cx="204.01" cy="33.63" rx="0.98" ry="2.99" transform="translate(5.18 90.36) rotate(-25.29)"/><path class="cls-3" d="M93.5,31.5s1,2,6,1a4.94,4.94,0,0,0-1-3h2s2-4,0-5a4.83,4.83,0,0,0-4,0c-2,1-2,1-2,3v2A3.1,3.1,0,0,1,93.5,31.5Z"/><path class="cls-3" d="M100.54,29.5l35-2,2-10a276,276,0,0,0-28-2s-18,9-23,14h8"/><path class="cls-3" d="M142.5,20.5l-1,5h11.36s.64-2.59-2.86-3.8A19.92,19.92,0,0,0,142.5,20.5Z"/><path class="cls-3" d="M137.5,17.5s11.23,1.5,14.86,3l4.14,5s1,1-1,1-20,1-20,1a18.66,18.66,0,0,1,3,4c1,2-2.65,8.25-2.65,8.25"/><path class="cls-3" d="M86.5,29.5s-5.32,2-4.16,9S83.79,50,83.79,50"/><line class="cls-3" x1="84.34" y1="35.45" x2="137.5" y2="31.69"/><line class="cls-3" x1="112.5" y1="31.5" x2="135.5" y2="28.92"/><path class="cls-3" d="M139.5,31.5s38.89-2,50.45-2"/><path class="cls-3" d="M137.5,28.62s32-3.12,45-2.12"/><path class="cls-3" d="M205.26,22.5h-4.57a3.29,3.29,0,0,0-1.65,3H185.5"/><line class="cls-3" x1="199.48" y1="25.5" x2="203.5" y2="25.5"/><line class="cls-3" x1="199.48" y1="25.79" x2="199.04" y2="25.5"/><path class="cls-3" d="M181.5,42.5a75,75,0,0,0,12-1,21.33,21.33,0,0,0-1.91-10.42c-.08-.19-.17-.39-.26-.58,0,0-.83-3,1.17-3s7-.32,7-.32l4.29-.88"/><path class="cls-3" d="M191.51,30.89h1.93s1.82,5.8,1.94,6.7a3.16,3.16,0,0,1,0,1.26h-1.86"/><path class="cls-3" d="M196.47,27.46l-.66,2.75S201.5,40.5,200.5,47.5"/></g></svg>